<svg xmlns="http://www.w3.org/2000/svg" viewBox="0 0 64 64" width="64" height="64">
  <!-- Background circle with gradient -->
  <defs>
    <radialGradient id="bgGradient" cx="50%" cy="30%" r="70%">
      <stop offset="0%" style="stop-color:#fbbf24;stop-opacity:1" />
      <stop offset="50%" style="stop-color:#f59e0b;stop-opacity:1" />
      <stop offset="100%" style="stop-color:#d97706;stop-opacity:1" />
    </radialGradient>
    <linearGradient id="wandGradient" x1="0%" y1="0%" x2="100%" y2="100%">
      <stop offset="0%" style="stop-color:#8b5cf6;stop-opacity:1" />
      <stop offset="100%" style="stop-color:#6366f1;stop-opacity:1" />
    </linearGradient>
  </defs>
  
  <!-- Main background -->
  <circle cx="32" cy="32" r="30" fill="url(#bgGradient)" stroke="#92400e" stroke-width="2"/>
  
  <!-- Magic wand -->
  <line x1="20" y1="44" x2="44" y2="20" stroke="url(#wandGradient)" stroke-width="3" stroke-linecap="round"/>
  
  <!-- Wand tip (star) -->
  <g transform="translate(44,20)">
    <path d="M0,-4 L1.2,-1.2 L4,0 L1.2,1.2 L0,4 L-1.2,1.2 L-4,0 L-1.2,-1.2 Z" fill="#fbbf24" stroke="#f59e0b" stroke-width="0.5"/>
  </g>
  
  <!-- Sparkles around the wand -->
  <g fill="#fbbf24" opacity="0.8">
    <!-- Large sparkles -->
    <circle cx="26" cy="26" r="1.5"/>
    <circle cx="38" cy="38" r="1.5"/>
    <circle cx="30" cy="20" r="1"/>
    <circle cx="44" cy="32" r="1"/>
    <circle cx="20" cy="36" r="1"/>
    
    <!-- Small sparkles -->
    <circle cx="35" cy="25" r="0.8"/>
    <circle cx="29" cy="39" r="0.8"/>
    <circle cx="42" cy="28" r="0.6"/>
    <circle cx="22" cy="30" r="0.6"/>
    <circle cx="36" cy="42" r="0.6"/>
  </g>
  
  <!-- Magical aura lines -->
  <g stroke="#fbbf24" stroke-width="1" fill="none" opacity="0.6">
    <path d="M15,25 Q20,20 25,25"/>
    <path d="M39,39 Q44,44 49,39"/>
    <path d="M25,15 Q30,10 35,15"/>
  </g>
  
  <!-- Inner glow effect -->
  <circle cx="32" cy="32" r="28" fill="none" stroke="#fbbf24" stroke-width="1" opacity="0.3"/>
</svg> 